<?xml version="1.0" encoding="UTF-8"?>
<svg xmlns="http://www.w3.org/2000/svg" width="1200" height="630" viewBox="0 0 680 356" role="img">
  <title>Finance Coffee Chat — OG image</title>
  <desc>A coffee mug shaped like a chat bubble filled with latte, featuring an emerald green upward line chart on the surface whose tip rises as a wisp of steam, next to the wordmark Finance Coffee Chat</desc>

  <defs>
    <clipPath id="cupClip">
      <rect x="150" y="95" width="170" height="170" rx="26"/>
    </clipPath>
  </defs>

  <rect x="0" y="0" width="680" height="356" fill="#FAF8F3"/>

  <path d="M 320 148 A 35 37 0 0 1 320 222" stroke="#966F33" stroke-width="14" fill="none" stroke-linecap="round"/>

  <g clip-path="url(#cupClip)">
    <rect x="150" y="95" width="170" height="170" fill="#966F33"/>
    <rect x="150" y="95" width="170" height="30" fill="#E8D5B7"/>
    <line x1="150" y1="125" x2="320" y2="125" stroke="#7A5826" stroke-width="0.5" opacity="0.35"/>
  </g>

  <path d="M 178 262 L 168 286 L 200 266 Z" fill="#966F33"/>

  <path d="M 172 228 L 202 212 L 228 218 L 258 182 L 285 148" stroke="#50C878" stroke-width="3.5" fill="none" stroke-linecap="round" stroke-linejoin="round"/>

  <circle cx="172" cy="228" r="3.5" fill="#50C878"/>
  <circle cx="202" cy="212" r="3.5" fill="#50C878"/>
  <circle cx="228" cy="218" r="3.5" fill="#50C878"/>
  <circle cx="258" cy="182" r="3.5" fill="#50C878"/>
  <circle cx="285" cy="148" r="4.5" fill="#50C878"/>

  <path d="M 285 148 Q 298 122 283 98 Q 272 75 293 55 Q 302 38 285 18" stroke="#50C878" stroke-width="3" fill="none" stroke-linecap="round" opacity="0.7"/>

  <text x="400" y="170" font-family="Inter, 'Geist', -apple-system, BlinkMacSystemFont, 'Segoe UI', sans-serif" font-size="42" font-weight="600" fill="#1E3A5F">Finance</text>
  <text x="400" y="218" font-family="Inter, 'Geist', -apple-system, BlinkMacSystemFont, 'Segoe UI', sans-serif" font-size="42" font-weight="600" fill="#1E3A5F">Coffee Chat</text>
  <rect x="400" y="236" width="48" height="3" rx="1.5" fill="#50C878"/>
</svg>
